<svg width="20" height="20" viewBox="0 0 20 20" fill="none" xmlns="http://www.w3.org/2000/svg">
<path d="M1.66699 16.6668H3.33366M3.33366 16.6668H10.0003M3.33366 16.6668V6.00033C3.33366 5.0669 3.33366 4.59985 3.51532 4.24333C3.6751 3.92972 3.92988 3.67494 4.24349 3.51515C4.60001 3.3335 5.06707 3.3335 6.00049 3.3335H7.33383C8.26724 3.3335 8.73374 3.3335 9.09024 3.51515C9.40383 3.67494 9.65908 3.92972 9.81883 4.24333C10.0003 4.5995 10.0003 5.06599 10.0003 5.99759V8.53858M10.0003 16.6668H16.667M10.0003 16.6668V8.53858M10.0003 8.53858L10.3015 8.26799C10.9314 7.70212 11.2464 7.4191 11.6025 7.31177C11.9162 7.2172 12.2509 7.2172 12.5646 7.31177C12.9207 7.41912 13.2359 7.702 13.8659 8.26799L15.7826 9.98991C16.1082 10.2825 16.2707 10.429 16.3876 10.6045C16.4911 10.76 16.568 10.9317 16.6145 11.1127C16.667 11.3167 16.667 11.536 16.667 11.9737V16.6668M16.667 16.6668H18.3337" stroke="#151515" stroke-width="1.5" stroke-linecap="round" stroke-linejoin="round"/>
</svg>
